<?xml version="1.0" standalone="no"?>
<!DOCTYPE svg PUBLIC "-//W3C//DTD SVG 20010904//EN"
 "http://www.w3.org/TR/2001/REC-SVG-20010904/DTD/svg10.dtd">
<svg version="1.0" xmlns="http://www.w3.org/2000/svg"
 width="980.000000pt" height="980.000000pt" viewBox="0 0 980.000000 980.000000"
 preserveAspectRatio="xMidYMid meet">

<g transform="translate(0.000000,980.000000) scale(0.100000,-0.100000)"
fill="#000000" stroke="none">
<path d="M4800 7134 c-279 -26 -566 -151 -795 -344 -124 -105 -272 -270 -260
-290 4 -6 1 -9 -6 -8 -30 7 -249 -381 -235 -417 3 -9 2 -13 -4 -10 -11 7 -71
-177 -73 -226 -1 -21 -5 -35 -8 -33 -4 2 -13 -31 -20 -74 -21 -118 -19 -576 4
-711 30 -176 79 -359 122 -456 79 -178 149 -300 167 -288 7 3 8 1 4 -6 -13
-20 115 -168 135 -155 8 5 9 3 4 -5 -9 -16 73 -93 89 -84 6 3 8 3 4 -2 -10
-11 50 -58 63 -49 7 4 9 3 6 -3 -9 -15 116 -87 232 -135 221 -90 426 -123 726
-115 264 7 419 35 612 113 163 66 340 186 434 295 30 34 61 70 70 79 18 19 76
101 102 145 43 74 108 219 103 232 -3 8 -2 12 3 9 17 -11 76 199 112 399 30
165 38 543 14 699 -9 64 -20 114 -24 112 -3 -2 -7 12 -7 33 -4 95 -188 530
-222 523 -8 -1 -11 2 -7 8 7 11 -104 179 -119 180 -4 0 -5 -7 -2 -16 3 -9 2
-12 -5 -9 -5 4 -7 15 -4 25 11 36 -273 308 -308 294 -8 -3 -18 -1 -22 5 -3 7
0 8 9 5 32 -12 14 6 -43 45 -143 97 -362 187 -525 215 -90 16 -256 26 -326 20z
m-1067 -669 c-3 -9 -8 -14 -10 -11 -3 3 -2 9 2 15 9 16 15 13 8 -4z"/>
<path d="M4635 3199 c-144 -15 -292 -38 -415 -65 -117 -27 -393 -112 -465
-144 -22 -10 -69 -30 -105 -45 -92 -38 -160 -76 -154 -86 3 -5 -2 -6 -10 -3
-20 7 -58 -14 -50 -28 4 -7 3 -8 -5 -4 -11 7 -67 -23 -221 -122 -181 -116
-322 -232 -500 -412 -188 -190 -185 -186 -169 -207 12 -16 12 -17 -2 -6 -13
11 -19 10 -33 -5 -9 -10 -13 -22 -9 -27 5 -4 3 -5 -3 -2 -14 8 -107 -120 -98
-135 4 -6 3 -8 -4 -4 -10 6 -141 -171 -134 -182 2 -2 0 -8 -5 -11 -19 -13 -83
-133 -77 -143 4 -7 2 -8 -4 -4 -14 8 -35 -30 -28 -50 3 -8 2 -13 -3 -9 -9 5
-33 -41 -103 -195 -149 -327 -251 -766 -265 -1138 l-6 -172 3131 0 3132 0 0
104 c0 348 -107 847 -249 1161 -10 22 -22 50 -25 63 -4 12 -12 19 -18 16 -7
-4 -8 -2 -4 4 4 7 0 24 -8 39 -9 16 -22 45 -30 66 -9 21 -20 36 -26 32 -6 -3
-7 0 -4 9 13 33 -255 445 -391 601 -50 57 -150 168 -161 179 -229 219 -383
342 -569 458 -193 120 -398 221 -429 213 -16 -5 -18 -4 -6 4 16 11 24 8 -165
76 -206 75 -384 119 -626 156 -155 23 -537 34 -684 18z"/>
</g>
</svg>
